<svg width="70" height="54" viewBox="0 0 70 54" fill="none" xmlns="http://www.w3.org/2000/svg">
<mask id="path-1-outside-1_110_980" maskUnits="userSpaceOnUse" x="0" y="0" width="70" height="54" fill="black">
<rect fill="white" width="70" height="54"/>
<path fill-rule="evenodd" clip-rule="evenodd" d="M58.4993 8.67522C63.699 13.0776 67 19.6533 67 27C67 40.2548 56.2548 51 43 51C33.8836 51 25.9544 45.9171 21.8918 38.4308C17.8189 37.4714 15 35.4003 15 33C15 31.2118 16.5645 29.6063 19.0465 28.5071C19.0157 28.0087 19 27.5062 19 27C19 26.8503 19.0014 26.7008 19.0041 26.5517C11.9223 25.7641 7 24.0223 7 22C7 19.7871 12.8943 17.9099 21.0625 17.2515C21.1636 17.0243 21.2681 16.799 21.376 16.5756C10.653 15.5944 3 13.0206 3 10C3 6.13401 15.536 3 31 3C33.8441 3 36.5891 3.10601 39.1754 3.30308C40.4208 3.10363 41.6983 3 43 3C47.8536 3 52.3707 4.44078 56.147 6.91799C57.2258 7.46709 58.0253 8.0567 58.4993 8.67522Z"/>
</mask>
<path fill-rule="evenodd" clip-rule="evenodd" d="M58.4993 8.67522C63.699 13.0776 67 19.6533 67 27C67 40.2548 56.2548 51 43 51C33.8836 51 25.9544 45.9171 21.8918 38.4308C17.8189 37.4714 15 35.4003 15 33C15 31.2118 16.5645 29.6063 19.0465 28.5071C19.0157 28.0087 19 27.5062 19 27C19 26.8503 19.0014 26.7008 19.0041 26.5517C11.9223 25.7641 7 24.0223 7 22C7 19.7871 12.8943 17.9099 21.0625 17.2515C21.1636 17.0243 21.2681 16.799 21.376 16.5756C10.653 15.5944 3 13.0206 3 10C3 6.13401 15.536 3 31 3C33.8441 3 36.5891 3.10601 39.1754 3.30308C40.4208 3.10363 41.6983 3 43 3C47.8536 3 52.3707 4.44078 56.147 6.91799C57.2258 7.46709 58.0253 8.0567 58.4993 8.67522Z" fill="#EEEEEE"/>
<path d="M58.4993 8.67522L56.1179 10.4998L56.3143 10.7562L56.5608 10.9648L58.4993 8.67522ZM21.8918 38.4308L24.5285 36.9999L23.8876 35.8188L22.5796 35.5107L21.8918 38.4308ZM19.0465 28.5071L20.2614 31.2501L22.1699 30.4048L22.0408 28.3215L19.0465 28.5071ZM19.0041 26.5517L22.0036 26.6067L22.0537 23.8724L19.3357 23.5701L19.0041 26.5517ZM21.0625 17.2515L21.3035 20.2418L23.0791 20.0987L23.8033 18.4713L21.0625 17.2515ZM21.376 16.5756L24.0775 17.8802L25.96 13.9825L21.6494 13.588L21.376 16.5756ZM39.1754 3.30308L38.9474 6.29441L39.3003 6.3213L39.6497 6.26534L39.1754 3.30308ZM56.147 6.91799L54.5015 9.42642L54.6393 9.51682L54.7862 9.59158L56.147 6.91799ZM70 27C70 18.7341 66.282 11.3337 60.4378 6.38563L56.5608 10.9648C61.116 14.8216 64 20.5725 64 27H70ZM43 54C57.9117 54 70 41.9117 70 27H64C64 38.598 54.598 48 43 48V54ZM19.255 39.8617C23.8213 48.2762 32.74 54 43 54V48C35.0273 48 28.0875 43.5581 24.5285 36.9999L19.255 39.8617ZM22.5796 35.5107C20.8241 35.0972 19.5324 34.4841 18.7526 33.8817C18.3706 33.5865 18.1712 33.3405 18.0768 33.1831C18.0316 33.1079 18.0135 33.0582 18.0065 33.0342C17.9999 33.012 18 33.0028 18 33H12C12 35.4704 13.4555 37.3714 15.0845 38.6298C16.7324 39.9028 18.8866 40.805 21.2039 41.3509L22.5796 35.5107ZM18 33C18 32.9968 18.0002 32.9915 18.0024 32.9812C18.0048 32.9705 18.0109 32.9477 18.0267 32.912C18.059 32.839 18.1346 32.7064 18.3002 32.5264C18.6451 32.1516 19.2749 31.687 20.2614 31.2501L17.8317 25.764C15.0823 26.9817 12 29.334 12 33H18ZM16 27C16 27.5681 16.0176 28.1325 16.0523 28.6926L22.0408 28.3215C22.0138 27.8849 22 27.4442 22 27H16ZM16.0046 26.4968C16.0015 26.6642 16 26.8319 16 27H22C22 26.8686 22.0012 26.7375 22.0036 26.6067L16.0046 26.4968ZM4 22C4 23.8181 5.10931 25.0755 5.99997 25.7916C6.92685 26.5368 8.09858 27.1038 9.30085 27.5508C11.7365 28.4564 15.0058 29.1256 18.6725 29.5334L19.3357 23.5701C15.9206 23.1903 13.1878 22.5947 11.3919 21.927C10.4784 21.5873 9.97692 21.2903 9.75956 21.1156C9.50597 20.9117 10 21.1931 10 22H4ZM20.8215 14.2612C16.6044 14.6011 12.8287 15.2641 10.0229 16.1956C8.63865 16.6552 7.31584 17.2363 6.27766 17.9955C5.31228 18.7016 4 20.0144 4 22H10C10 22.8792 9.42451 23.1275 9.81955 22.8386C10.1418 22.6029 10.8031 22.2586 11.9134 21.89C14.0968 21.1651 17.3524 20.5603 21.3035 20.2418L20.8215 14.2612ZM18.6746 15.2709C18.5532 15.5223 18.4355 15.776 18.3217 16.0317L23.8033 18.4713C23.8917 18.2726 23.9831 18.0756 24.0775 17.8802L18.6746 15.2709ZM0 10C0 12.1203 1.34109 13.6231 2.53316 14.5409C3.77603 15.4978 5.40256 16.2608 7.17204 16.8828C10.7451 18.1388 15.607 19.0602 21.1027 19.5631L21.6494 13.588C16.4221 13.1097 12.0959 12.2537 9.16172 11.2223C7.67757 10.7006 6.72066 10.1926 6.1935 9.78671C5.61553 9.34171 6 9.39001 6 10H0ZM31 0C23.0966 0 15.8407 0.797997 10.4734 2.13983C7.81282 2.80497 5.44691 3.64471 3.67389 4.69268C2.10169 5.62195 0 7.31802 0 10H6C6 10.749 5.46531 10.6036 6.72687 9.85789C7.7876 9.23092 9.52219 8.56229 11.9286 7.96068C16.6953 6.76901 23.4394 6 31 6V0ZM39.4033 0.311756C36.7389 0.108726 33.9178 0 31 0V6C33.7704 6 36.4393 6.10329 38.9474 6.29441L39.4033 0.311756ZM43 0C41.5388 0 40.1027 0.116343 38.701 0.340828L39.6497 6.26534C40.7389 6.09091 41.8578 6 43 6V0ZM57.7925 4.40955C53.5423 1.62145 48.456 0 43 0V6C47.2513 6 51.1991 7.26011 54.5015 9.42642L57.7925 4.40955ZM60.8806 6.85061C60.0158 5.72195 58.7658 4.88466 57.5078 4.24439L54.7862 9.59158C55.6859 10.0495 56.0349 10.3914 56.1179 10.4998L60.8806 6.85061Z" fill="black" mask="url(#path-1-outside-1_110_980)"/>
</svg>
